# xmcd
#
# Track frame offsets:
#	150
#	21249
#	36077
#	50352
#	65805
#	79689
#	95443
#	111237
#	126134
#	147545
#	162036
#
# Disc length: 2360 seconds
#
# Revision: 0
# Processed by: cddbd v1.5.2PL0 Copyright (c) Steve Scherf et al.
# Submitted via: EasyCDDAExtractor 12.1.0.1
#
DISCID=9509360b
DTITLE=Mathieu Provencal - Le toit du monde
DYEAR=2015
DGENRE=Chanson quebecoise
TTITLE0=Le toit du monde
TTITLE1=Revivre
TTITLE2=Tu dors encore (Ma belle Aurore)
TTITLE3=Sans toi
TTITLE4=Dejeuner en paix
TTITLE5=Danse
TTITLE6=K.O.
TTITLE7=Coeur d'acier
TTITLE8=Unchain My Heart
TTITLE9=J'abandonne
TTITLE10=Si tu savais
EXTD=
EXTT0=
EXTT1=
EXTT2=
EXTT3=
EXTT4=
EXTT5=
EXTT6=
EXTT7=
EXTT8=
EXTT9=
EXTT10=
PLAYORDER=
